<svg height="265.533072" viewBox="0 0 141.164 99.408" width="376.600923" xmlns="http://www.w3.org/2000/svg"><g transform="translate(-1.613 -22.679)"><g fill="#717271"><path d="m139.408 101.625a1.625 1.625 0 1 1 1.623 1.534 1.54 1.54 0 0 1 -1.623-1.534zm2.91-.018a1.289 1.289 0 0 0 -2.575 0 1.288 1.288 0 0 0 2.575 0zm-1.958-.247v-.44c0-.106-.07-.124-.211-.124-.018 0-.036-.018-.036-.053 0-.053.036-.07.089-.07h.07c.035 0 .176.017.3.017.159 0 .229-.017.405-.017.3 0 .776.053.776.476 0 .176-.07.317-.37.529l.317.37c.23.265.265.265.3.265a.046.046 0 0 1 .053.052c0 .053-.017.071-.158.071a.684.684 0 0 1 -.688-.335l-.247-.335h-.212v.159c0 .317.018.352.035.37a.539.539 0 0 0 .177.018c.035 0 .053 0 .053.052a.065.065 0 0 1 -.071.071h-.07c-.036 0-.194-.018-.282-.018-.054 0-.23.018-.265.018h-.088c-.035 0-.124-.018-.124-.071a.046.046 0 0 1 .053-.052c.159 0 .177 0 .194-.106a3.645 3.645 0 0 0 0-.459zm.388.177a.566.566 0 0 0 .247.053.259.259 0 0 0 .159-.036.342.342 0 0 0 .158-.3.385.385 0 0 0 -.405-.388c-.018 0-.124 0-.159.036z"/><path d="m9.91 100.249c-.616 0-1.317.022-2 .044-.638.02-1.258.04-1.773.04-.3 0-.77-.015-1.308-.032-.728-.023-1.634-.052-2.435-.052-.235 0-.785 0-.785.463 0 .308.221.464.655.464a4.759 4.759 0 0 1 .966.077c.7.159.9.457.953 1.39.052.884.052 1.648.052 5.884v4.895c0 2.544 0 4.743-.128 5.894-.1.817-.229 1.274-.592 1.351a3.793 3.793 0 0 1 -.887.105c-.52 0-.629.236-.629.435 0 .183.095.492.733.492.595 0 1.373-.027 2.06-.051.51-.017.959-.033 1.215-.033s.66.012 1.153.027c.81.026 1.819.057 2.877.057.655 0 .706-.377.706-.492 0-.131-.061-.435-.628-.435a10.47 10.47 0 0 1 -1.3-.108c-.6-.086-.752-.51-.833-1.315-.128-1.184-.128-3.383-.128-5.927v-11.122c0-.246.057-.324.067-.329a3.249 3.249 0 0 1 .941-.1 3.491 3.491 0 0 1 2.453 1.025 5.3 5.3 0 0 1 1.468 4.018c0 2.712-1.905 4.376-3.27 4.376-.329 0-.941 0-.941.518 0 .356.333.427.48.458a3.361 3.361 0 0 0 .591.034c3.828 0 6.607-2.92 6.607-6.944a5.234 5.234 0 0 0 -1.35-3.456c-.41-.41-1.643-1.651-4.99-1.651z"/><path d="m70.975 100.249c-.919 0-1.687.039-2.2.064-.231.012-.4.02-.5.02-.222 0-.556-.013-.963-.028-.662-.025-1.484-.056-2.361-.056-.347 0-.927 0-.927.463 0 .308.22.464.653.464a4.384 4.384 0 0 1 1.373.149c.523.222.777.623.8 2.312l.266 12.1c-.343-.354-.977-1.027-1.732-1.829-1.338-1.42-3-3.187-4.077-4.274-4.2-4.225-8.471-8.878-8.512-8.922-.091-.1-.175-.193-.252-.279-.339-.378-.583-.651-.92-.651-.569 0-.569.842-.569 1.155l-.235 16.463c-.028 2.471-.16 3.078-.7 3.247a4.684 4.684 0 0 1 -1.178.13c-.539 0-.652.236-.652.435 0 .492.531.492.817.492 1.013 0 1.951-.042 2.511-.067.225-.01.385-.017.456-.017.181 0 .432.01.758.023.626.026 1.485.061 2.648.061.231 0 .844 0 .844-.492 0-.288-.228-.435-.679-.435a4.143 4.143 0 0 1 -1.357-.181c-.351-.125-.761-.567-.82-2.893l-.29-11.2c.09.1.2.216.313.347 1.154 1.284 3.555 3.953 5.932 6.338 1.16 1.163 2.429 2.454 3.643 3.69 1.766 1.8 3.435 3.5 4.461 4.484a1.767 1.767 0 0 0 1.084.676c.57 0 .57-.754.57-1.071l.3-17.547c.029-1.646.29-2 .856-2.162a2.783 2.783 0 0 1 .773-.076c.614 0 .706-.291.706-.464.004-.469-.566-.469-.84-.469z"/><path d="m91.7 116.1c-.429 0-.5.355-.563.724a4.461 4.461 0 0 1 -.884 1.742c-1.067 1.246-2.526 1.483-4.845 1.483-5.734 0-8.406-5.781-8.406-9.687 0-3.248.778-5.487 2.449-7.046a6.845 6.845 0 0 1 5-1.668c2.311 0 4.48.665 5.4 1.658a3.79 3.79 0 0 1 1.008 2.412c0 .247 0 .825.487.825s.519-.526.54-.832.035-.843.042-1.425c.007-.563.014-1.144.04-1.588.033-.582.076-.935.1-1.167a3.443 3.443 0 0 0 .034-.373c0-.115-.044-.5-.6-.545-.417-.043-.855-.131-1.319-.224-.445-.089-.905-.181-1.411-.25a27.116 27.116 0 0 0 -3.994-.279c-3.8 0-6.589.955-8.791 3a10.905 10.905 0 0 0 -3.268 7.774 10.686 10.686 0 0 0 3.465 8.366c2.384 2.1 5.41 3.085 9.524 3.085a15.83 15.83 0 0 0 5.007-.657 1.181 1.181 0 0 0 .833-.944 26.746 26.746 0 0 0 .61-3.758c.001-.564-.32-.626-.458-.626z"/><path d="m107.112 117.046c-.388 0-.449.358-.489.6-.168 1.093-.444 1.608-1.019 1.9a5.721 5.721 0 0 1 -2.27.31c-2.515 0-2.763-.376-2.808-2.13-.018-.569-.01-2 0-3.156 0-.463 0-.872 0-1.146v-2.2a.584.584 0 0 1 0-.065c.759 0 3.053.031 3.485.081.924.11 1.139.527 1.227.918a4.684 4.684 0 0 1 .079.72c.006.09.011.176.017.237a.42.42 0 0 0 .44.463c.439 0 .439-.519.439-.74 0-.1.021-.467.045-.866.021-.351.044-.73.055-.984.066-.935.133-1.45.17-1.728a3.143 3.143 0 0 0 .032-.316.387.387 0 0 0 -.389-.436c-.22 0-.351.167-.533.4l-.035.045c-.179.22-.511.288-1.064.339-.359.035-1.8.054-3.968.054 0-.02 0-.049 0-.092v-7.035c0-.029 0-.05 0-.066.63 0 3.12.058 3.507.109 1.183.157 1.368.443 1.516.866a3.035 3.035 0 0 1 .138.926c0 .4.148.6.439.6.17 0 .388-.084.462-.487.034-.227.066-.82.093-1.3.013-.247.025-.457.034-.559a12.525 12.525 0 0 1 .166-1.522 1.974 1.974 0 0 0 .037-.3c0-.417-.255-.463-.364-.463a.968.968 0 0 0 -.319.074.961.961 0 0 1 -.14.044 9.711 9.711 0 0 1 -1.038.161c-.427.025-4.535.027-6.282.027-.309 0-.791-.021-1.347-.045l-.238-.011c-.308 0-.639-.007-.977-.014-.354-.006-.715-.014-1.063-.014-.23 0-.767 0-.767.463 0 .308.216.464.641.464a4.46 4.46 0 0 1 .933.077c.672.158.869.457.919 1.389.049.885.049 1.649.049 5.885v4.895c0 2.544 0 4.743-.123 5.895-.1.816-.222 1.274-.569 1.35a3.55 3.55 0 0 1 -.857.105c-.536 0-.616.273-.616.435 0 .183.094.492.717.492.246 0 .527-.014.819-.027s.621-.029.928-.03c.6-.027 1.147-.027 1.423-.027.7 0 1.436.023 2.614.084l.728.019c.953.028 2.14.063 3.631.063.955 0 1.351 0 1.567-.888a23.983 23.983 0 0 0 .333-3.135c.005-.28.005-.708-.408-.708z"/><path d="m118.226 108.635-.766-.583c-2.386-1.837-2.822-2.733-2.822-3.836 0-1.612 1.2-2.652 3.049-2.652a3.259 3.259 0 0 1 2.821 1.283 3.193 3.193 0 0 1 .666 1.7c0 .589.265.713.486.713.515 0 .515-.656.515-1.047 0-1.533.055-2.373.087-2.874.014-.208.023-.354.023-.462 0-.417-.4-.507-.541-.539a13.308 13.308 0 0 0 -3.7-.481c-3.853 0-6.546 2.249-6.546 5.469 0 2.436 1.239 4.457 4.139 6.756l1.261 1c2.17 1.726 2.6 2.919 2.6 4.283a3.157 3.157 0 0 1 -3.461 2.959 3.6 3.6 0 0 1 -3.715-2.656 5.759 5.759 0 0 1 -.238-1.359c0-.567-.266-.686-.487-.686-.481 0-.525.67-.541.923l-.006.086c-.032.525-.132 2.121-.132 3.571 0 .683.127.907.647 1.139a9.5 9.5 0 0 0 4.089.742 7.984 7.984 0 0 0 4.476-1.176 5.865 5.865 0 0 0 2.672-5.016c.004-2.743-1.237-4.711-4.576-7.257z"/><path d="m133.026 108.635-.766-.583c-2.387-1.837-2.823-2.734-2.823-3.836 0-1.612 1.2-2.652 3.049-2.652a3.266 3.266 0 0 1 2.822 1.282 3.2 3.2 0 0 1 .665 1.7c0 .589.265.713.487.713.515 0 .515-.656.515-1.047 0-1.533.054-2.373.086-2.874.013-.208.023-.354.023-.462 0-.417-.4-.507-.54-.539a13.328 13.328 0 0 0 -3.7-.481c-3.854 0-6.545 2.249-6.545 5.469 0 2.436 1.237 4.457 4.138 6.756l1.261 1c2.17 1.726 2.606 2.919 2.606 4.283a3.157 3.157 0 0 1 -3.461 2.959 3.6 3.6 0 0 1 -3.716-2.656 5.759 5.759 0 0 1 -.238-1.359c0-.567-.265-.686-.486-.686-.481 0-.525.67-.541.923l-.006.1c-.036.579-.133 2.118-.133 3.56 0 .683.127.907.647 1.139a9.5 9.5 0 0 0 4.089.742 7.984 7.984 0 0 0 4.476-1.176 5.862 5.862 0 0 0 2.673-5.016c-.002-2.744-1.244-4.713-4.582-7.259z"/><path d="m46.023 120.772a10.187 10.187 0 0 1 -1.3-.109c-.635-.09-.783-.45-.858-1.17-.1-1.187-.1-3.343-.1-6.071v-4.895c0-4.236 0-5 .052-5.885.049-.941.242-1.279.787-1.387a3.886 3.886 0 0 1 .742-.08c.417 0 .629-.166.629-.491 0-.435-.572-.435-.759-.435-.548 0-1.263.026-1.9.049-.514.018-.979.035-1.268.035-.35 0-.891-.018-1.468-.037-.667-.023-1.383-.047-1.912-.047-.25 0-.836 0-.836.435 0 .325.211.491.629.491a3.223 3.223 0 0 1 .885.105c.34.084.664.306.722 1.363.051.884.051 1.648.051 5.884v4.895c0 2.727 0 4.881-.129 6.041-.079.822-.227 1.126-.591 1.2a3.786 3.786 0 0 1 -.774.1h-.7a3.6 3.6 0 0 1 -.65-.077 4.947 4.947 0 0 1 -2.769-1.818c-1.318-1.481-2.814-3.5-4.707-6.055l-.807-1.087c2.351-2.081 3.357-3.962 3.357-6.26a5.13 5.13 0 0 0 -1.855-3.981 8.088 8.088 0 0 0 -4.908-1.237c-.395 0-1.07.02-1.761.041-.718.021-1.454.043-1.9.043-.21 0-.581-.012-1.036-.028-.748-.025-1.677-.056-2.526-.056-.235 0-.784 0-.784.463 0 .307.22.463.654.463a4.8 4.8 0 0 1 .967.078c.7.159.9.457.953 1.39.051.884.051 1.648.051 5.884v4.895c0 2.544 0 4.743-.128 5.894-.1.817-.229 1.273-.592 1.35a3.745 3.745 0 0 1 -.887.106c-.52 0-.628.236-.628.435 0 .183.095.492.732.492.62 0 1.453-.03 2.122-.054.461-.016.85-.03 1.05-.03.13 0 .433.009.835.021.79.025 1.983.063 2.986.063.637 0 .732-.309.732-.492 0-.2-.137-.435-.524-.435a11.024 11.024 0 0 1 -1.243-.109c-.6-.086-.754-.519-.833-1.343-.13-1.155-.13-3.366-.13-5.927l-.009-.4 2.266.055c.164 0 .234.026.3.116.189.233.675.973 1.239 1.831.418.636.885 1.346 1.323 1.991 1.532 2.253 2.515 3.514 3.632 4.153a5.206 5.206 0 0 0 2.887.558h3.282c.6 0 1.374-.027 2.061-.051.51-.017.958-.033 1.215-.033.272 0 .686.013 1.191.028.808.025 1.815.056 2.864.056.655 0 .706-.377.706-.492-.002-.128-.063-.432-.63-.432zm-17.168-13.914c0 2.493-.91 3.578-1.451 4a2.284 2.284 0 0 1 -1.716.429 6.263 6.263 0 0 1 -1.887-.259c-.078-.036-.111-.051-.111-.308v-8.454c0-.16.022-.166.088-.186a5.627 5.627 0 0 1 1.312-.1c1.398.002 3.765 1.028 3.765 4.878z"/></g><path d="m55.641 48.669c16.947 10.419 19.63 9.968 33.712.721 18.146-11.9 28.062 3.907 40.565 5.593 6.578.879 12.346-2.845 12.346-2.845-13.452 24.422-32.243 12.715-47.433 5.577-14.347-6.715-23.938 12.86-39.115 10.318-.455-.1-.724.342-.389.546 17.936 11.021 25.373 5.521 33.097.448 18.667-12.227 29.254 4.24 41.29 5.863 6.571.893 12.353-2.841 12.353-2.841-15.381 27.917-35.035 10.66-43.22 6.884-6.465-2.973-9.955-6.706-24.465.313-12.675 6.154-29.458 11.254-44.845 6.63a.644.644 0 0 1 -.125-.052c1.777-4.912 4.53-11.365 9.29-11.292 1.389.006 8.987.507 9.778.388a1.949 1.949 0 0 0 1.672-1.481c.369-1.646-.3-2.028-.375-2.562s.461-.7.895-1.053c.718-.576.784-1.008.626-1.492-.139-.418-1.107-.552-1.429-.734s-.23-.737.283-.8c2.594-.342 2.456-1.718 2.16-2.206-1.06-1.922.589-2.263 1.2-2.409.822-.2 2.314-.762 1.881-2.213-.521-1.743-1.027-3.03-1.385-4.527-.576-2.408-1.18-4.525-.611-5.911.748-1.82 1.525-1.307 2.242-.86m74.771-14.446c-15.361-2.074-23.749-15.085-40.144-4.346-9.981 6.552-13.726 12.04-33.479-.105-9.876-6.077-15.76-6.661-21.373-7.025-17.744-1.156-32.83 12.632-33.672 30.64-.455 9.675 2.958 18.248 9.517 24.375a1.285 1.285 0 0 0 2.107-.29l.184-.441 10.134-24.382s5.491-14.33 19.041-9.85c4.359 1.425 7.96 2.831 11.2 3.816 7.736 2.373 13.4 2.419 22.334-4.679 4.067-3.232 10.783-7.749 19.494-3.729 12.181 5.6 32.52 19.479 47.025-6.822 0 0-5.801 3.712-12.366 2.835z" fill="#0054a0"/></g></svg>